<svg width="174" height="151" viewBox="0 0 174 151" fill="none" xmlns="http://www.w3.org/2000/svg">
<path d="M83.7041 74.8791C82.7947 74.6692 82.1101 74.3743 81.6504 73.9945C80.6012 73.2049 80.0765 72.8101 80.0765 72.8101C80.1065 72.6802 80.7961 72.3604 82.1453 71.8509C83.1747 71.5412 84.259 71.5863 85.3983 71.9861C86.6675 72.416 87.5769 72.6259 88.1265 72.616C91.3945 72.6862 95.372 72.6466 100.059 72.4972C104.746 72.3477 110.418 71.194 117.074 69.0359L125.709 66.3084C126.448 66.0687 126.888 66.2386 127.028 66.8183C126.738 66.8882 126.533 67.183 126.413 67.7026C127.322 67.9126 127.917 67.7078 128.197 67.0882C128.637 66.3687 129.062 65.7141 129.471 65.1245L129.666 65.1695L134.583 63.4311C135.263 63.4511 135.833 63.6511 136.292 64.0309C136.882 64.4407 137.481 64.5107 138.091 64.2409C137.951 63.6613 137.766 63.2765 137.537 63.0866C137.337 62.7668 137.542 62.472 138.151 62.2022L139.066 61.7975C140.255 61.3879 141.269 61.1431 142.109 61.0633C143.108 60.8835 143.923 60.3189 144.553 59.3696C147.691 57.6309 150.439 55.8023 152.798 53.8838C155.157 51.9652 156.576 49.9666 157.056 47.8879C157.566 45.6793 156.766 43.5106 154.658 41.3817C152.709 39.153 148.772 36.944 142.846 34.7548L141.332 34.2C140.452 33.8601 139.638 33.5352 138.889 33.2254C138.139 32.9155 137.42 32.4757 136.73 31.906C136.74 32.4556 136.42 32.6555 135.771 32.5055C133.982 31.9557 132.178 31.4708 130.359 31.0509C128.57 30.5011 126.831 30.0312 125.142 29.6413C122.284 28.9814 119.606 28.4315 117.108 27.9916C114.739 27.5816 113.02 27.3216 111.951 27.2116L105.34 26.5064C104.621 26.0666 103.811 26.0166 102.912 26.3563L102.717 26.3113C101.807 26.1013 100.868 26.0213 99.8985 26.0712C98.9591 25.9911 97.9398 25.961 96.8405 25.9809C96.2908 25.9909 95.6762 25.9858 94.9966 25.9658C94.347 25.8158 93.6675 25.7957 92.9579 25.9056L88.8805 25.7853C87.8211 26.2249 86.5769 26.2798 85.1478 25.9499L84.9529 25.9049L81.0253 26.0244L80.8305 25.9794C80.3108 25.8595 79.9161 25.4946 79.6463 24.885C79.4065 24.1454 79.2817 23.5008 79.2717 22.9512C78.9619 23.7007 78.572 24.5001 78.1022 25.3496C77.6324 26.199 77.0728 26.5487 76.4232 26.3988L70.5618 26.8929C70.0121 26.9028 69.4125 26.8328 68.7629 26.6829C68.1134 26.5329 67.4638 26.3829 66.8142 26.2329C66.1646 26.083 65.63 26.028 65.2102 26.0679C64.7905 26.1078 64.4557 26.3726 64.2058 26.8623C64.1158 27.2521 63.8459 27.5319 63.3962 27.7017C62.7566 28.1014 62.017 28.3412 61.1775 28.4211C60.368 28.371 59.6085 28.4009 58.8989 28.5108L58.7041 28.4658C58.4442 28.4058 58.0845 28.1859 57.6248 27.8061C57.295 27.4563 56.9852 27.3163 56.6954 27.3863C56.5355 27.4862 56.3306 27.781 56.0807 28.2707C55.8308 28.7603 55.561 29.0401 55.2711 29.1101L55.2262 29.3049C54.3867 29.3848 53.4672 29.5146 52.4678 29.6944C51.4684 29.8742 50.534 30.069 49.6645 30.2788C48.7951 30.4886 47.7807 30.7334 46.6214 31.0131C45.622 31.1929 44.7825 31.2727 44.1029 31.2527C43.8431 31.1927 43.7732 30.9029 43.8931 30.3832C44.143 29.8935 44.1081 29.7486 43.7882 29.9485C42.9188 30.1583 41.9743 30.6928 40.9549 31.5522C39.9354 32.4116 39.0559 32.9611 38.3164 33.2009C37.5468 33.5706 36.7723 33.6655 35.9928 33.4855C35.3432 33.3356 34.6336 33.4454 33.8641 33.8151C33.3843 34.1149 32.8446 34.6745 32.2449 35.4939C31.8051 36.2134 31.3454 36.7231 30.8656 37.0228C29.5864 37.8222 28.2621 38.8165 26.8928 40.0056C26.7029 40.2354 26.4481 40.4503 26.1283 40.6501C25.8084 40.85 25.6035 41.1448 25.5136 41.5345L25.3187 41.4895C24.1793 42.8685 23.4446 44.2726 23.1147 45.7017C22.4548 48.5598 23.0143 50.8784 24.793 52.6575C26.7016 54.4665 28.9451 56.0108 31.5233 57.2902C32.013 57.5401 32.4227 57.84 32.7525 58.1898C33.2122 58.5696 33.7168 58.7545 34.2665 58.7446C34.8461 58.6047 35.3308 58.5798 35.7206 58.6698C36.3702 58.8197 36.8298 59.1995 37.0996 59.8092L39.8878 61.0687C41.3568 61.8183 42.0463 62.388 41.9563 62.7778C41.8963 63.0376 41.4466 63.2075 40.6071 63.2873C39.9275 63.2673 39.2629 63.1823 38.6134 63.0323C36.2749 62.4924 33.5217 61.3779 30.3538 59.6886C27.216 57.8695 24.5079 55.6706 22.2295 53.092C19.9512 50.5134 18.9771 47.6201 19.3072 44.4121C19.3372 44.2822 19.2173 43.9124 18.9475 43.3028C18.8076 42.7231 18.7177 42.2234 18.6778 41.8037C18.558 40.5445 18.6331 39.3302 18.903 38.161C19.4129 35.9524 20.3475 33.9787 21.7068 32.24C23.1961 30.5312 24.9801 29.0273 27.0589 27.7283C27.8584 27.2287 28.548 26.9089 29.1277 26.7691C29.8373 26.6592 30.6418 26.4344 31.5413 26.0947C32.4407 25.755 32.9354 25.3903 33.0254 25.0005C33.1154 24.6108 33.6101 24.2461 34.5096 23.9064C35.6989 23.4967 37.3079 23.0472 39.3367 22.5577C41.4954 22.0982 43.1544 21.7285 44.3137 21.4488C45.0932 21.6288 45.8827 21.469 46.6823 20.9693C49.5505 20.4 52.5187 19.9905 55.5868 19.741C58.6849 19.3615 61.768 19.047 64.8361 18.7974C65.3858 18.7875 65.8705 18.7625 66.2902 18.7226C66.71 18.6827 67.1147 18.7077 67.5045 18.7977C68.0241 18.9176 68.4988 19.2325 68.9285 19.7422C68.9885 19.4824 68.9685 19.2725 68.8686 19.1126C68.9286 18.8528 69.1035 18.6879 69.3933 18.618C72.8812 18.3285 76.289 18.0889 79.617 17.8994C83.1048 17.6099 86.4078 17.825 89.5257 18.5449L89.7206 18.5899C89.9804 18.6499 90.2553 18.6449 90.5451 18.575C90.9648 18.535 91.3046 18.5451 91.5645 18.605L91.7593 18.65L93.1684 18.7701C93.858 19.3398 94.6674 19.3898 95.5969 18.9202C99.2546 19.0805 102.607 19.3756 105.656 19.8056C108.734 20.1057 111.312 20.4957 113.391 20.9756L114.17 21.1556C114.82 21.3055 115.354 21.3606 115.774 21.3206L117.723 21.7705C118.143 21.7306 118.532 21.8206 118.892 22.0405C119.412 22.1604 119.801 22.2504 120.061 22.3104L120.256 22.3554C121.815 22.7153 123.424 23.1552 125.083 23.675C126.902 24.0949 128.721 24.5148 130.54 24.9347L130.734 24.9797C131.254 25.0997 131.599 25.3846 131.769 25.8343C132.098 26.1841 132.583 26.1592 133.223 25.7595C136.7 26.6992 140.118 27.8988 143.476 29.3582C145.984 30.3478 148.792 31.8172 151.9 33.7662C155.138 35.7453 157.771 38.269 159.8 41.3373C161.858 44.2756 162.392 47.8884 161.403 52.1756C160.923 54.2543 160.228 56.0781 159.318 57.647C158.569 59.116 157.459 60.3651 155.99 61.3944C154.651 62.4536 153.117 63.4678 151.388 64.437C150.908 64.7368 150.413 65.1015 149.904 65.5312C149.394 65.9609 148.834 66.3106 148.225 66.5804C148.065 66.6803 147.775 66.7502 147.355 66.7902C147.095 66.7302 146.82 66.7352 146.531 66.8051C146.211 67.0049 145.906 67.1398 145.616 67.2098C145.326 67.2797 144.957 67.3996 144.507 67.5694C139.56 69.4378 135.362 70.7266 131.914 71.4358C128.626 72.0451 124.319 72.6244 118.992 73.1735C117.313 73.3333 116.134 73.4031 115.454 73.3831C114.805 73.2331 114.255 73.243 113.805 73.4129C110.348 73.5725 106.345 74.0168 101.798 74.7459C97.2506 75.475 93.4229 75.7545 90.3149 75.5843C90.0251 75.6543 89.1356 75.6542 87.6465 75.5841C86.3174 75.4141 85.0032 75.1791 83.7041 74.8791ZM128.519 146.599C128.389 146.569 127.935 146.464 127.155 146.284C126.376 146.104 125.936 145.934 125.836 145.774C125.376 145.394 125.272 144.959 125.521 144.47C125.771 143.98 125.636 143.675 125.117 143.555C124.597 143.435 124.227 143.555 124.007 143.915C123.758 144.404 123.308 144.574 122.658 144.424L122.463 144.379C121.814 144.229 121.304 143.77 120.934 143C120.695 142.261 120.285 141.961 119.705 142.101C118.836 142.31 118.141 142.355 117.622 142.235C116.712 142.025 116.073 141.536 115.703 140.766C115.333 139.996 114.754 139.247 113.964 138.517C113.834 138.487 113.559 138.492 113.14 138.532C112.85 138.602 112.59 138.542 112.36 138.352C112.26 138.192 111.356 137.368 109.647 135.878C107.908 134.519 106.185 133.095 104.476 131.606C102.767 130.116 101.748 129.197 101.418 128.847C101.238 127.848 100.968 127.238 100.609 127.018C100.379 126.828 99.8092 126.628 98.8997 126.418C98.4701 125.909 97.8605 125.289 97.0711 124.559C96.3815 123.99 95.9818 123.35 95.872 122.64C94.333 121.601 93.019 120.477 91.9298 119.267C90.8406 118.058 89.7164 116.704 88.5573 115.204C88.3574 114.885 88.0776 114.615 87.7179 114.395C87.3581 114.175 87.0783 113.905 86.8785 113.585L82.5167 108.473C82.4368 107.634 81.6574 106.564 80.1784 105.265C78.7295 103.836 77.7852 102.591 77.3455 101.532C77.2456 101.372 77.2107 101.227 77.2407 101.097C77.3906 100.448 77.1408 100.048 76.4912 99.8978C76.1015 99.8079 75.7117 99.7179 75.322 99.6279C74.9322 99.5379 74.7974 99.2331 74.9173 98.7134C74.7375 97.714 74.0031 96.4498 72.7141 94.9206C71.455 93.2615 70.3259 91.6324 69.3266 90.0333C68.3274 88.4342 68.1276 87.225 68.7274 86.4055C68.2377 86.1556 67.733 85.9707 67.2133 85.8507C66.6937 85.7308 66.3489 85.4459 66.1791 84.9962C65.8994 83.8369 65.4447 82.8425 64.8152 82.0129C64.4854 81.6631 64.1857 81.1834 63.9159 80.5737L62.4916 82.2975C61.792 82.957 61.0624 83.7465 60.3028 84.6658C59.5432 85.5852 58.7036 86.5545 57.7841 87.5738L55.2204 90.6766C55.0005 91.0364 54.7606 91.1862 54.5008 91.1263C54.4009 90.9663 54.221 90.8564 53.9612 90.7964C54.101 91.3761 54.126 91.8608 54.036 92.2505C53.796 93.2898 52.9565 94.2591 51.5173 95.1585C48.9286 98.666 46.5148 102.009 44.2759 105.187C42.037 108.364 40.1828 111.357 38.7135 114.165C38.2137 115.145 37.704 115.574 37.1843 115.454C36.2749 115.244 36.0452 114.165 36.4951 112.216C36.915 110.398 38.2894 107.704 40.6182 104.137L40.3784 104.287C40.2485 104.257 39.7638 104.282 38.9243 104.362C38.0848 104.441 37.5501 104.386 37.3203 104.196C35.6314 103.807 34.9219 103.027 35.1918 101.858C35.9117 98.7397 37.3111 95.6418 39.3901 92.5639L47.5162 80.4822C47.866 80.1525 48.0859 79.7927 48.1758 79.403C48.3957 79.0432 48.6156 78.6835 48.8355 78.3237L49.0754 78.1738L49.1204 77.979L50.8447 74.0666C51.3745 72.9573 51.7443 71.948 51.9543 71.0386C52.2941 70.1591 52.614 69.0699 52.914 67.7707C53.004 67.3809 53.2588 67.1661 53.6786 67.1262C53.8885 66.2168 54.1484 65.3873 54.4583 64.6378C54.7982 63.7584 55.0731 62.864 55.283 61.9545L55.508 60.9802C55.4081 60.8203 55.4031 60.5454 55.4931 60.1557C55.5531 59.8959 55.5481 59.621 55.4782 59.3312C55.5382 59.0714 55.5981 58.8115 55.6581 58.5517C55.6881 58.4218 55.7031 58.3568 55.7031 58.3568C55.863 58.2569 55.958 58.142 55.988 58.0121C56.6077 56.5131 57.3924 55.189 58.3419 54.0398C59.4213 52.9206 60.3408 52.7908 61.1002 53.6503C61.33 53.8402 61.6048 54.7247 61.9244 56.3037C62.374 57.9127 62.7836 59.102 63.1533 59.8716C63.3731 61.2907 63.7377 62.6749 64.2473 64.0241C64.7868 65.2434 65.1664 66.5626 65.3862 67.9817C65.626 68.7213 65.7009 69.2859 65.6109 69.6757C65.5509 69.9355 65.9456 70.3003 66.795 70.7701C72.1223 64.8843 77.3745 59.3233 82.5518 54.087C87.8889 48.7509 92.6363 44.7838 96.794 42.1858L97.4686 41.931L98.2781 41.0916C98.2781 41.0916 98.4231 41.0567 98.7129 40.9867C99.0027 40.9168 99.1826 41.0267 99.2525 41.3166C99.2225 41.4465 99.0326 41.6763 98.6828 42.0061C98.4629 42.3658 98.338 42.6107 98.308 42.7406C98.5478 43.4802 98.9875 43.6501 99.6271 43.2504C99.817 43.0206 99.952 42.4359 100.032 41.4965C100.112 40.5571 100.217 40.1024 100.347 40.1324C100.637 40.0625 100.767 40.0925 100.737 40.2224C100.837 40.3823 100.952 40.4773 101.081 40.5073C101.341 40.5672 101.516 40.4024 101.606 40.0126C101.696 39.6229 101.821 39.378 101.981 39.2781C103.53 39.0884 104.889 39.1285 106.058 39.3984C106.708 39.5484 107.542 40.0831 108.562 41.0026C109.711 41.9522 110.151 43.0115 109.881 44.1808C109.731 44.8304 109.226 45.5349 108.366 46.2943C108.206 46.3942 108.017 46.6241 107.797 46.9838C107.607 47.2137 107.352 47.4285 107.032 47.6284C106.872 47.7283 106.727 47.7632 106.597 47.7333C106.627 47.6033 106.497 47.5733 106.208 47.6433C106.048 47.7432 105.838 47.7632 105.578 47.7032C105.478 47.5433 105.298 47.4333 105.038 47.3733C104.779 47.3133 104.669 47.4932 104.708 47.913C104.878 48.3627 104.883 48.6375 104.723 48.7375C104.563 48.8374 104.434 48.8074 104.334 48.6475C104.234 48.4876 104.024 48.5075 103.704 48.7074C103.544 48.8073 103.579 48.9522 103.809 49.1421C104.199 49.2321 104.234 49.377 103.914 49.5769C102.954 50.1764 101.785 50.7959 100.406 51.4354C99.1866 51.9749 97.9673 52.5145 96.748 53.054C96.5881 53.1539 96.4582 53.1239 96.3582 52.964C96.2883 52.6742 96.1734 52.5792 96.0135 52.6792L94.1995 54.313C92.6004 55.3122 90.9863 56.3764 89.3572 57.5055C87.7281 58.6347 85.9891 59.9437 84.1401 61.4326C83.5704 62.1221 82.9507 62.7317 82.2811 63.2613C81.6114 63.7909 80.8369 63.8857 79.9575 63.5459C79.9275 63.6758 80.0124 63.9007 80.2123 64.2205C80.4421 64.4104 80.3821 64.6702 80.0323 65C76.2743 68.2376 72.6813 71.6501 69.2531 75.2376L72.1757 81.2491C72.4455 81.8587 72.5054 82.4883 72.3554 83.1379C72.2354 83.6576 72.2904 84.0124 72.5202 84.2023C72.78 84.2623 72.9899 84.2423 73.1498 84.1424C73.4396 84.0724 73.6495 84.0525 73.7794 84.0825C74.1692 84.1724 74.419 84.5722 74.5288 85.2818C74.7986 85.8914 75.0834 86.4361 75.3831 86.9158C75.7828 87.5555 76.1825 88.1951 76.5822 88.8348C77.1118 89.5044 77.6264 90.239 78.126 91.0385L78.0811 91.2334C78.5107 91.7431 79.1902 92.6526 80.1195 93.9619C81.0488 95.2712 81.9132 96.5654 82.7125 97.8447C83.5419 98.9941 83.9616 99.8436 83.9715 100.393C84.1114 100.973 84.4261 101.388 84.9158 101.638C85.4055 101.887 85.8152 102.187 86.1449 102.537C87.0043 103.557 87.8637 104.576 88.7231 105.595C89.7123 106.645 90.6217 107.744 91.451 108.894C91.7808 109.243 91.8507 109.533 91.6608 109.763C91.6008 110.023 91.6058 110.298 91.6757 110.588C91.9056 110.777 92.3153 111.077 92.9049 111.487C93.6544 111.797 94.194 112.127 94.5238 112.477C97.0619 115.115 99.6151 117.689 102.183 120.198C104.721 122.836 107.42 125.375 110.278 127.814C113.265 130.282 116.363 132.571 119.571 134.68C122.779 136.789 126.331 138.294 130.229 139.193C133.347 139.913 136.47 140.018 139.598 139.509C142.856 139.03 144.845 137.231 145.565 134.113C145.805 133.074 145.865 131.924 145.745 130.665C145.765 129.986 145.67 129.211 145.46 128.342C145.381 127.502 145.061 126.812 144.501 126.273C144.291 125.403 143.697 124.719 142.718 124.219C142.218 123.419 141.783 122.635 141.414 121.865C141.074 120.966 140.369 120.461 139.3 120.351C139 119.871 138.895 119.436 138.985 119.047C139.105 118.527 139.39 118.182 139.84 118.012C140.45 117.743 141.049 117.813 141.639 118.223C142.428 118.952 142.978 119.832 143.288 120.861C143.757 121.79 144.497 122.44 145.506 122.81L146.255 124.009C146.495 124.749 146.765 125.359 147.065 125.838C147.494 126.348 147.829 126.973 148.069 127.712C148.339 128.322 148.563 129.126 148.743 130.126C149.023 131.285 149.153 132.204 149.133 132.884C149.273 133.464 149.218 133.998 148.968 134.488C148.848 135.008 148.908 135.637 149.147 136.377C148.477 140.464 146.428 143.412 143 145.221C139.542 147.159 135.9 147.823 132.072 147.214C131.742 146.864 131.398 146.579 131.038 146.359C130.808 146.169 130.563 146.044 130.303 145.984C129.914 145.894 129.319 146.099 128.519 146.599ZM44.5913 98.4857C44.8211 98.6756 44.951 98.7056 44.981 98.5757C45.1709 98.3459 45.2659 98.2309 45.2659 98.2309C45.6157 97.9012 45.8356 97.5414 45.9256 97.1517C46.0456 96.632 46.2155 96.1923 46.4354 95.8326C50.1236 90.5262 54.5813 84.8502 59.8086 78.8044C60.1884 78.3448 60.4783 78.2748 60.6781 78.5947C61.0379 78.8146 61.3127 78.8096 61.5026 78.5797C61.8224 78.3799 61.9624 78.0701 61.9224 77.6504C62.0124 77.2606 62.0874 76.9358 62.1474 76.676C62.0774 76.3862 61.9276 76.1463 61.6977 75.9564C61.4679 75.7665 61.318 75.5266 61.2481 75.2368C61.0583 73.6878 60.5538 72.6134 59.7343 72.0137C59.0748 71.3141 58.6701 70.3996 58.5203 69.2703C58.2706 67.9811 57.9459 67.0166 57.5462 66.377C57.3064 65.6374 56.9667 64.738 56.5271 63.6786L54.4128 70.1693C53.983 71.4385 53.4432 72.8875 52.7934 74.5165C52.2736 76.1754 51.5889 77.6594 50.7393 78.9685C50.5194 79.3282 50.3195 79.8979 50.1395 80.6774L49.6446 82.821C49.5846 83.0808 49.4447 83.3906 49.2248 83.7504C49.1348 84.1401 49.0448 84.5299 48.9548 84.9196L47.6653 88.7271C47.2354 89.9963 46.7256 91.3154 46.1359 92.6845C45.5761 93.9237 45.1613 95.1279 44.8913 96.2971C44.6514 97.3364 44.5514 98.066 44.5913 98.4857Z" fill="black"/>
</svg>
